<?xml version="1.0" standalone="no"?>
<!DOCTYPE svg PUBLIC "-//W3C//DTD SVG 20010904//EN"
 "http://www.w3.org/TR/2001/REC-SVG-20010904/DTD/svg10.dtd">
<svg version="1.0" xmlns="http://www.w3.org/2000/svg"
 width="926.000000pt" height="706.000000pt" viewBox="0 0 926.000000 706.000000"
 preserveAspectRatio="xMidYMid meet">

<g transform="translate(0.000000,706.000000) scale(0.100000,-0.100000)"
fill="#000000" stroke="none">
<path d="M7725 6270 c-104 -28 -208 -54 -230 -59 -134 -30 -520 -133 -544
-145 -41 -21 -43 -28 -183 -441 -39 -115 -86 -254 -104 -309 -18 -54 -39 -105
-45 -112 -10 -12 -321 -14 -2021 -14 l-2010 0 -34 -34 c-29 -29 -34 -41 -34
-83 0 -27 10 -91 21 -143 12 -52 25 -111 29 -130 17 -79 141 -638 151 -680 11
-46 15 -65 44 -200 9 -41 23 -102 30 -135 8 -33 22 -94 31 -135 20 -94 19 -90
94 -425 78 -350 76 -343 85 -385 21 -102 37 -141 69 -165 l33 -25 1356 0
c1340 0 1409 -1 1492 -32 92 -35 163 -120 148 -179 -12 -45 -55 -89 -121 -121
l-67 -33 -1325 -5 c-1443 -5 -1359 -2 -1402 -61 -25 -33 -26 -98 -2 -138 38
-65 -49 -61 1377 -61 1155 0 1303 2 1373 16 167 35 303 124 371 245 105 185
45 382 -158 520 -33 22 -59 42 -59 45 0 3 34 105 76 227 41 122 91 267 109
322 18 55 91 267 160 470 70 204 136 397 146 430 11 33 24 69 28 80 5 11 48
137 96 280 48 143 91 269 95 280 5 11 27 74 49 140 49 148 245 720 259 756 7
18 20 28 39 31 15 3 154 38 308 77 154 40 334 86 400 102 150 38 167 45 194
84 33 49 29 107 -12 151 -50 55 -85 54 -312 -6z m-4155 -1352 c9 -21 30 -114
51 -228 5 -25 13 -63 18 -85 6 -22 11 -55 11 -72 l0 -33 -367 0 c-203 0 -373
4 -379 8 -15 10 -107 409 -97 424 2 5 173 8 379 8 l374 0 10 -22z m1664 2 c-1
-14 -29 -149 -69 -334 -8 -38 -20 -73 -27 -78 -7 -4 -281 -8 -609 -8 -466 0
-599 3 -606 13 -5 6 -17 50 -27 97 -23 115 -33 163 -51 243 -9 37 -13 72 -10
77 4 7 250 9 703 8 612 -3 697 -5 696 -18z m1295 8 c0 -7 -33 -105 -72 -218
l-72 -205 -479 -3 c-266 -1 -484 2 -489 7 -5 5 -2 40 7 82 29 141 67 314 72
332 5 16 39 17 520 17 405 0 514 -3 513 -12z m-2814 -690 c3 -7 23 -101 45
-208 23 -107 45 -215 51 -240 5 -25 12 -60 15 -77 l7 -33 -376 0 c-423 0 -379
-9 -399 85 -11 55 -10 51 -62 283 -20 90 -36 172 -36 183 0 18 11 19 375 19
291 0 377 -3 380 -12z m1375 -1 c0 -7 -11 -67 -25 -132 -57 -268 -77 -362 -82
-392 -3 -18 -11 -37 -17 -42 -7 -6 -176 -7 -440 -3 l-429 7 -13 50 c-6 28 -17
73 -22 100 -11 54 -29 138 -61 283 -12 52 -21 104 -21 118 l0 24 555 0 c448 0
555 -2 555 -13z m1200 -4 c0 -10 -8 -38 -16 -63 -9 -25 -52 -148 -95 -274 -44
-127 -82 -233 -86 -237 -5 -4 -199 -5 -432 -2 l-423 6 5 46 c3 25 17 100 31
166 14 66 37 173 51 238 14 65 27 123 30 128 4 5 199 9 471 9 435 0 464 -1
464 -17z m-2406 -823 c9 -9 32 -111 65 -280 5 -25 16 -80 25 -124 10 -43 15
-84 12 -92 -4 -12 -68 -14 -366 -14 l-360 0 -11 26 c-5 15 -18 68 -29 118 -11
50 -24 109 -30 131 -26 112 -50 224 -50 240 0 17 19 18 367 12 233 -4 370 -10
377 -17z m785 3 l243 -6 -5 -41 c-3 -23 -17 -95 -31 -161 -14 -66 -33 -156
-42 -200 -9 -44 -21 -86 -27 -92 -7 -10 -73 -13 -271 -13 -143 0 -266 4 -272
8 -11 6 -29 86 -89 382 -13 63 -21 118 -19 122 6 10 191 10 513 1z m1330 -19
c9 -8 -148 -475 -164 -486 -11 -9 -749 -11 -757 -3 -6 6 -3 20 36 205 15 69
34 161 43 205 9 44 21 83 27 87 10 7 807 -1 815 -8z"/>
<path d="M3575 1930 c-76 -11 -160 -57 -214 -116 -87 -95 -117 -195 -96 -317
23 -131 90 -224 203 -279 56 -28 80 -34 153 -36 119 -5 185 20 286 106 35 30
83 116 98 177 19 70 19 115 1 183 -52 192 -233 311 -431 282z m174 -217 c72
-50 102 -154 67 -236 -25 -61 -111 -117 -181 -117 -38 0 -94 21 -124 45 -36
31 -71 104 -71 149 0 75 65 167 132 188 49 15 135 1 177 -29z"/>
<path d="M5490 1931 c-217 -33 -368 -267 -305 -475 33 -108 106 -195 205 -244
49 -24 66 -27 160 -27 93 0 112 3 162 27 74 34 146 107 183 183 27 54 30 70
29 160 0 82 -4 109 -23 150 -44 97 -139 185 -231 213 -50 15 -128 20 -180 13z
m146 -200 c63 -29 114 -110 114 -180 0 -49 -46 -128 -91 -158 -36 -24 -53 -28
-110 -28 -60 0 -71 3 -105 31 -64 51 -78 78 -82 152 -3 62 -1 71 28 115 55 81
156 109 246 68z"/>
</g>
</svg>
