<?xml version="1.0" standalone="no"?>
<!DOCTYPE svg PUBLIC "-//W3C//DTD SVG 20010904//EN"
 "http://www.w3.org/TR/2001/REC-SVG-20010904/DTD/svg10.dtd">
<svg version="1.0" xmlns="http://www.w3.org/2000/svg"
 width="922.000000pt" height="853.000000pt" viewBox="0 0 922.000000 853.000000"
 preserveAspectRatio="xMidYMid meet">

<g transform="translate(0.000000,853.000000) scale(0.100000,-0.100000)"
fill="#000000" stroke="none">
<path d="M1413 7065 c-17 -7 -36 -22 -42 -34 -6 -11 -13 -98 -16 -194 l-4
-174 -91 -229 c-50 -126 -137 -344 -193 -484 -96 -239 -102 -259 -100 -319 6
-189 144 -365 335 -430 l53 -18 3 -1630 2 -1630 -62 -49 c-197 -153 -414 -329
-425 -343 -20 -26 -18 -436 2 -498 47 -144 151 -251 295 -304 l65 -24 3365 0
3365 0 60 23 c161 62 274 194 304 356 15 81 14 398 -1 430 -10 23 -111 107
-415 346 l-83 65 3 1629 2 1629 50 17 c130 44 235 134 292 250 35 71 59 184
49 231 -5 27 -60 169 -312 800 l-74 186 0 162 c0 174 -8 207 -53 233 -34 20
-6328 23 -6374 3z m6225 -247 l3 -58 -3046 0 -3045 0 0 54 c0 34 5 56 13 59 6
3 1375 5 3042 4 l3030 -2 3 -57z m-5628 -271 c0 -15 -19 -79 -110 -372 -40
-126 -82 -265 -95 -308 -13 -42 -27 -82 -30 -87 -10 -16 -568 -13 -562 3 79
204 302 755 309 765 15 18 488 18 488 -1z m704 -27 c0 -30 -40 -221 -88 -420
-7 -30 -26 -117 -42 -193 l-29 -137 -285 2 c-247 3 -285 5 -281 18 8 34 217
708 231 744 l10 26 242 -2 243 -3 -1 -35z m710 -10 c0 -25 -5 -85 -12 -135 -6
-49 -18 -139 -26 -200 -8 -60 -22 -164 -31 -230 -8 -66 -18 -132 -21 -147 l-6
-28 -285 0 -285 0 6 38 c4 20 13 64 21 97 15 63 119 537 130 593 13 63 12 63
273 60 l237 -3 -1 -45z m712 36 c5 -13 -10 -478 -23 -674 l-6 -102 -286 2
-286 3 3 35 c3 34 24 202 42 330 5 36 19 139 30 230 12 91 23 171 25 178 7 19
494 17 501 -2z m701 6 c8 -5 16 -77 23 -222 17 -342 25 -539 22 -550 -2 -6
-108 -10 -289 -10 l-286 0 7 173 c15 384 29 602 40 609 15 10 468 10 483 0z
m725 -42 c4 -25 22 -148 38 -275 17 -126 37 -279 45 -340 8 -60 15 -113 15
-117 0 -5 -130 -8 -288 -8 l-289 0 -6 143 c-4 78 -11 251 -17 385 -6 133 -8
247 -5 253 4 6 99 8 253 7 l246 -3 8 -45z m696 37 c6 -6 13 -26 17 -42 3 -17
10 -48 15 -70 14 -58 80 -359 96 -435 8 -36 20 -94 29 -130 25 -111 55 -100
-269 -100 l-285 0 -6 48 c-3 26 -10 74 -15 107 -5 33 -16 116 -25 185 -9 69
-20 154 -25 190 -27 181 -31 243 -18 251 22 15 474 11 486 -4z m716 -19 c8
-18 22 -60 31 -93 10 -33 23 -78 31 -100 13 -38 73 -232 133 -430 15 -49 31
-100 35 -112 l7 -23 -285 0 c-262 0 -285 1 -290 18 -5 16 -120 530 -152 682
-8 36 -12 71 -9 78 3 9 62 12 244 12 l240 0 15 -32z m692 24 c6 -4 23 -36 37
-72 14 -36 82 -208 151 -382 69 -175 126 -320 126 -323 0 -3 -127 -4 -282 -3
l-282 3 -39 125 c-21 69 -56 184 -78 255 -22 72 -44 141 -49 155 -35 102 -70
232 -65 240 7 12 464 14 481 2z m-5946 -999 c0 -24 -46 -88 -84 -117 -54 -41
-106 -58 -181 -58 -76 0 -127 16 -183 59 -31 24 -92 106 -92 125 0 4 122 8
270 8 247 0 270 -1 270 -17z m790 4 c0 -17 -48 -83 -81 -114 -75 -69 -213 -87
-310 -40 -30 14 -63 34 -74 44 -27 24 -75 94 -75 110 0 10 59 13 270 13 220 0
270 -3 270 -13z m780 -5 c0 -28 -47 -89 -93 -120 -64 -43 -101 -55 -175 -54
-73 1 -125 18 -181 60 -38 29 -94 110 -85 123 3 5 124 9 270 9 246 0 264 -1
264 -18z m790 5 c0 -16 -48 -86 -75 -110 -11 -10 -44 -30 -74 -44 -96 -46
-212 -33 -299 33 -38 29 -92 100 -92 121 0 10 50 13 270 13 211 0 270 -3 270
-13z m790 5 c0 -19 -61 -101 -91 -124 -62 -46 -104 -60 -181 -60 -107 0 -186
40 -242 120 -51 74 -59 72 244 72 149 0 270 -4 270 -8z m780 -6 c0 -18 -46
-86 -73 -109 -113 -93 -276 -94 -385 -2 -34 29 -82 96 -82 115 0 6 93 10 270
10 221 0 270 -2 270 -14z m790 4 c0 -19 -48 -86 -82 -115 -87 -74 -219 -91
-314 -41 -61 32 -86 53 -118 101 -46 67 -55 65 244 65 177 0 270 -4 270 -10z
m780 -3 c0 -25 -60 -104 -98 -129 -60 -39 -99 -51 -170 -50 -73 0 -126 17
-179 58 -33 25 -93 104 -93 123 0 8 85 11 270 11 218 0 270 -3 270 -13z m790
0 c0 -21 -54 -92 -92 -121 -56 -42 -106 -58 -184 -58 -74 1 -137 24 -189 69
-27 23 -75 94 -75 110 0 10 59 13 270 13 220 0 270 -3 270 -13z m-5989 -327
c179 -91 400 -59 551 79 61 56 72 60 87 33 6 -11 35 -38 66 -61 182 -138 418
-138 600 0 31 23 60 50 66 61 15 27 26 23 88 -34 112 -103 252 -145 406 -122
103 15 183 53 259 125 l61 56 54 -53 c160 -157 416 -180 608 -54 34 23 73 54
87 70 14 17 28 30 31 30 4 0 31 -21 59 -48 97 -88 209 -132 335 -132 135 0
238 41 337 133 l62 57 23 -30 c29 -37 137 -110 199 -135 58 -23 199 -31 272
-16 79 17 162 61 231 121 l57 52 58 -52 c109 -97 223 -136 372 -127 125 7 218
50 312 141 20 20 41 36 46 36 4 0 24 -16 43 -36 45 -48 121 -97 187 -120 l52
-19 0 -1602 0 -1603 -3035 0 -3035 0 0 1600 0 1601 48 20 c94 39 135 65 186
115 l51 51 56 -52 c30 -29 84 -67 120 -85z m5800 -3547 l122 -98 -1234 -5
c-966 -4 -1239 -8 -1256 -18 -32 -18 -53 -52 -53 -85 0 -35 -20 -75 -55 -107
l-27 -25 -691 -3 c-381 -2 -706 0 -724 3 -56 10 -91 49 -105 116 -14 69 -42
103 -90 113 -17 3 -576 6 -1241 6 -666 0 -1211 1 -1213 3 -2 2 51 47 119 100
l122 97 3102 0 3102 0 122 -97z m-4192 -346 c51 -105 138 -169 257 -187 102
-16 1426 -9 1476 8 83 28 160 98 210 191 l17 31 1276 0 1277 0 -4 -147 c-3
-133 -6 -152 -27 -188 -33 -58 -70 -94 -121 -118 l-45 -22 -3339 -3 -3339 -2
-52 24 c-67 31 -120 86 -145 153 -16 43 -20 78 -20 172 0 65 3 121 7 124 3 4
579 7 1279 7 l1272 0 21 -43z"/>
<path d="M3255 4821 c-55 -23 -78 -109 -41 -150 10 -11 80 -63 156 -116 76
-53 145 -104 153 -113 7 -10 47 -105 87 -212 84 -226 83 -223 103 -275 65
-166 227 -603 227 -611 0 -6 -36 -96 -80 -201 -88 -209 -95 -245 -56 -290 l24
-28 824 -3 c452 -2 838 0 856 3 56 10 87 81 61 139 -26 57 -11 56 -808 56
-402 0 -731 3 -731 8 0 4 19 53 42 110 l41 102 716 0 c438 0 733 4 761 10 75
17 130 51 170 105 53 72 52 69 145 480 20 88 50 216 66 284 51 212 41 224
-208 250 -54 6 -161 18 -238 26 -227 25 -413 45 -515 55 -52 6 -106 12 -120
15 -14 3 -72 9 -130 15 -104 9 -386 40 -550 60 -47 5 -152 17 -235 25 -240 25
-317 36 -339 47 -12 6 -79 53 -151 103 -174 123 -180 126 -230 106z m685 -451
c262 -26 307 -31 325 -35 22 -5 27 -21 65 -223 12 -63 19 -116 17 -119 -5 -5
-315 13 -404 24 -29 3 -53 11 -53 17 0 6 -29 86 -64 178 -35 92 -61 170 -57
173 3 3 21 3 41 0 19 -3 78 -10 130 -15z m725 -80 c386 -39 464 -49 469 -59 3
-7 -10 -183 -19 -250 l-7 -44 -101 7 c-315 19 -433 30 -443 40 -14 15 -68 291
-60 311 4 12 14 14 38 10 18 -3 74 -10 123 -15z m960 -104 c72 -9 133 -16 138
-16 10 0 9 -51 -2 -86 -5 -16 -17 -65 -26 -108 l-17 -79 -102 7 c-253 16 -297
19 -301 26 -5 8 13 249 20 269 6 16 66 13 290 -13z m-1370 -389 l140 -12 26
-130 c14 -71 29 -149 33 -173 l6 -42 -172 2 -173 3 -66 175 c-37 96 -64 178
-62 183 6 10 100 8 268 -6z m695 -48 c58 -5 113 -9 124 -9 18 0 18 -7 12 -127
-11 -195 17 -173 -220 -173 l-202 0 -18 93 c-9 50 -21 110 -26 132 -5 22 -12
55 -16 73 l-6 33 124 -6 c67 -4 170 -11 228 -16z m568 -38 c74 -5 137 -12 142
-17 9 -9 -20 -145 -41 -197 -20 -48 -53 -57 -209 -57 -163 0 -146 -20 -129
155 14 145 11 137 61 130 24 -3 103 -10 176 -14z"/>
<path d="M3968 2700 c-79 -24 -132 -99 -132 -190 -1 -65 21 -108 77 -154 36
-29 45 -31 116 -31 69 0 81 3 113 27 49 37 78 87 84 145 5 40 1 57 -23 103
-23 46 -37 60 -82 83 -55 27 -102 33 -153 17z"/>
<path d="M5245 2686 c-131 -66 -146 -243 -28 -333 33 -25 44 -28 114 -28 71 0
80 2 116 31 79 63 103 159 59 244 -49 97 -165 135 -261 86z"/>
</g>
</svg>
