<?xml version="1.0" standalone="no"?>
<!DOCTYPE svg PUBLIC "-//W3C//DTD SVG 20010904//EN"
 "http://www.w3.org/TR/2001/REC-SVG-20010904/DTD/svg10.dtd">
<svg version="1.0" xmlns="http://www.w3.org/2000/svg"
 width="800.000000pt" height="800.000000pt" viewBox="0 0 800.000000 800.000000"
 preserveAspectRatio="xMidYMid meet">

<g transform="translate(0.000000,800.000000) scale(0.100000,-0.100000)"
fill="#000000" stroke="none">
<path d="M2380 5721 c-98 -30 -186 -110 -221 -199 l-23 -57 2 -1466 1 -1466
21 -57 c26 -68 95 -142 165 -176 l50 -25 1625 0 1625 0 47 22 c69 31 140 107
169 179 l24 59 0 1465 0 1465 -23 58 c-28 69 -98 143 -167 177 l-50 25 -1610
2 c-885 1 -1621 -2 -1635 -6z m3262 -156 c74 -53 88 -89 88 -237 l0 -128
-1730 0 -1730 0 0 125 c0 135 11 175 62 222 59 56 -42 52 1680 50 l1586 -2 44
-30z m88 -507 c3 -978 -2 -2512 -9 -2530 -15 -39 -60 -87 -102 -108 -37 -20
-70 -20 -1619 -20 -1436 0 -1584 1 -1613 16 -45 23 -76 53 -98 96 -18 36 -19
78 -19 1298 l0 1260 1730 0 c1377 0 1730 -3 1730 -12z"/>
<path d="M4564 5452 c-20 -13 -31 -46 -24 -72 9 -36 45 -50 133 -50 69 0 81 3
102 25 29 28 31 51 9 83 -14 20 -23 22 -112 22 -53 0 -102 -4 -108 -8z"/>
<path d="M4955 5444 c-10 -11 -15 -29 -13 -53 4 -48 32 -61 131 -61 69 0 81 3
102 25 29 28 31 51 9 83 -14 20 -23 22 -114 22 -78 0 -102 -3 -115 -16z"/>
<path d="M5355 5444 c-10 -11 -15 -29 -13 -53 4 -48 32 -61 131 -61 69 0 81 3
102 25 29 28 31 51 9 83 -14 20 -23 22 -114 22 -78 0 -102 -3 -115 -16z"/>
<path d="M4298 4920 c-9 -6 -36 -60 -59 -121 -38 -98 -47 -113 -75 -127 -32
-15 -36 -14 -139 31 -58 26 -116 47 -128 47 -33 0 -247 -217 -247 -251 0 -33
19 -56 53 -65 25 -6 37 3 120 84 l92 90 99 -44 c54 -24 106 -44 115 -44 20 0
148 53 162 67 5 5 27 54 47 109 l38 99 90 3 91 3 23 -63 c55 -154 54 -153 138
-188 88 -37 96 -37 223 23 l76 35 63 -63 63 -64 -46 -101 c-26 -55 -47 -104
-47 -108 0 -4 15 -43 33 -87 l34 -80 84 -33 c46 -18 94 -37 107 -42 20 -9 22
-16 22 -90 0 -44 1 -83 2 -87 1 -5 -43 -25 -98 -46 -54 -21 -106 -46 -115 -55
-8 -9 -28 -49 -43 -88 l-28 -71 48 -107 48 -107 -62 -61 -61 -62 -107 48 -107
48 -70 -28 c-39 -16 -78 -35 -88 -44 -10 -8 -35 -60 -56 -115 l-38 -100 -70
-3 c-100 -4 -107 -1 -129 60 -49 139 -57 155 -82 166 -14 7 -31 12 -39 12 -20
0 -55 -40 -55 -62 0 -37 92 -263 117 -285 23 -22 33 -23 166 -23 93 0 150 5
166 13 17 9 35 41 66 122 37 99 45 112 76 127 l35 18 110 -50 c60 -27 115 -50
123 -50 18 0 239 217 247 242 3 11 -15 64 -45 130 l-51 112 18 35 c15 31 28
39 125 75 82 31 112 47 123 66 9 18 13 66 14 166 0 177 1 176 -145 229 -97 36
-108 42 -120 73 -14 32 -12 38 32 135 25 56 46 115 46 131 0 23 -20 48 -110
137 -78 77 -117 109 -134 109 -13 0 -72 -21 -130 -47 -99 -42 -110 -45 -138
-33 -26 10 -36 26 -71 119 -23 58 -49 114 -57 124 -14 15 -36 17 -172 17 -86
0 -164 -5 -173 -10z"/>
<path d="M2562 4784 c-15 -10 -22 -25 -22 -48 0 -54 23 -66 123 -66 106 0 134
-11 146 -59 5 -20 33 -274 61 -566 29 -291 56 -547 61 -568 6 -21 26 -56 46
-78 61 -68 71 -69 615 -69 478 0 509 2 530 34 14 20 8 63 -10 79 -17 15 -66
17 -499 17 -309 0 -491 4 -510 10 -35 13 -53 46 -53 95 l0 35 516 0 c330 0
522 4 534 10 11 6 24 27 30 48 19 72 133 647 133 675 0 15 -7 36 -17 45 -15
16 -71 17 -649 22 l-632 5 -12 122 c-13 134 -31 183 -83 226 -42 36 -89 47
-195 47 -66 0 -97 -4 -113 -16z m1558 -521 c-1 -5 -25 -125 -53 -268 l-53
-260 -487 -3 c-385 -2 -489 0 -492 10 -4 11 -55 495 -55 521 0 4 257 7 570 7
314 0 570 -3 570 -7z"/>
<path d="M4425 4375 c-52 -51 -21 -98 71 -110 170 -21 292 -148 302 -315 3
-60 0 -86 -18 -132 -28 -75 -96 -150 -168 -185 -50 -24 -69 -28 -147 -28 -79
0 -97 4 -142 28 -67 35 -107 35 -129 1 -36 -54 15 -108 139 -145 106 -33 227
-24 327 23 103 47 179 122 227 223 31 66 37 89 41 169 5 105 -11 178 -59 262
-61 107 -193 200 -318 224 -79 15 -99 13 -126 -15z"/>
<path d="M3120 3185 c-105 -33 -180 -138 -180 -253 0 -143 95 -248 234 -259
118 -10 212 41 262 142 71 147 -4 324 -157 369 -63 19 -99 19 -159 1z m157
-142 c54 -36 72 -137 32 -187 -104 -132 -300 -4 -223 145 31 61 129 83 191 42z"/>
<path d="M3787 3186 c-59 -22 -105 -57 -138 -105 -70 -105 -61 -231 22 -326
100 -114 287 -113 390 2 121 134 75 350 -89 419 -53 22 -140 27 -185 10z m126
-130 c49 -21 79 -59 84 -109 17 -149 -182 -206 -248 -71 -34 72 -7 149 65 180
40 17 59 17 99 0z"/>
</g>
</svg>
